<?xml version="1.0" encoding="UTF-8" standalone="no"?>
<!-- Generator: Adobe Illustrator 24.0.0, SVG Export Plug-In . SVG Version: 6.00 Build 0)  -->

<svg
   version="1.1"
   id="Layer_1"
   x="0px"
   y="0px"
   viewBox="0 0 249.99999 249.99999"
   xml:space="preserve"
   sodipodi:docname="pluginIcon.svg"
   inkscape:version="1.4.1 (93de688d07, 2025-03-30)"
   width="250"
   height="250"
   xmlns:inkscape="http://www.inkscape.org/namespaces/inkscape"
   xmlns:sodipodi="http://sodipodi.sourceforge.net/DTD/sodipodi-0.dtd"
   xmlns:xlink="http://www.w3.org/1999/xlink"
   xmlns="http://www.w3.org/2000/svg"
   xmlns:svg="http://www.w3.org/2000/svg"><defs
   id="defs6"><linearGradient
     inkscape:collect="always"
     xlink:href="#SVGID_1_"
     id="linearGradient8"
     x1="256.24356"
     y1="136.78117"
     x2="230.69931"
     y2="190.95978"
     gradientUnits="userSpaceOnUse"
     gradientTransform="matrix(1.3248861,0,0,1.380461,-257.95826,-164.65925)" /></defs><sodipodi:namedview
   id="namedview6"
   pagecolor="#ffffff"
   bordercolor="#000000"
   borderopacity="0.25"
   inkscape:showpageshadow="2"
   inkscape:pageopacity="0.0"
   inkscape:pagecheckerboard="false"
   inkscape:deskcolor="#d1d1d1"
   inkscape:zoom="1.9999999"
   inkscape:cx="115.25001"
   inkscape:cy="119.00001"
   inkscape:window-width="1890"
   inkscape:window-height="1122"
   inkscape:window-x="15"
   inkscape:window-y="41"
   inkscape:window-maximized="1"
   inkscape:current-layer="Layer_1"
   showgrid="true"
   inkscape:export-bgcolor="#ffffffff" />
<style
   type="text/css"
   id="style1">
	.st0{fill:url(#SVGID_1_);}
	.st1{fill:url(#SVGID_2_);}
	.st2{fill:url(#SVGID_3_);}
</style>
<linearGradient
   id="SVGID_1_"
   gradientUnits="userSpaceOnUse"
   x1="360.87909"
   y1="351.45529"
   x2="141.213"
   y2="-69.293602"
   gradientTransform="matrix(0.06546031,0,0,-0.06853616,4.0013196,29.07129)">
	<stop
   offset="0"
   style="stop-color:#00FFA3"
   id="stop1" />
	<stop
   offset="1"
   style="stop-color:#DC1FFF"
   id="stop2" />
</linearGradient>

<linearGradient
   id="SVGID_2_"
   gradientUnits="userSpaceOnUse"
   x1="264.8291"
   y1="401.60141"
   x2="45.162998"
   y2="-19.147499"
   gradientTransform="matrix(0.06546031,0,0,-0.06853616,4.0013196,29.07129)">
	<stop
   offset="0"
   style="stop-color:#00FFA3"
   id="stop3" />
	<stop
   offset="1"
   style="stop-color:#DC1FFF"
   id="stop4" />
</linearGradient>

<linearGradient
   id="SVGID_3_"
   gradientUnits="userSpaceOnUse"
   x1="312.5484"
   y1="376.68799"
   x2="92.882202"
   y2="-44.061001"
   gradientTransform="matrix(0.06546031,0,0,-0.06853616,4.0013196,29.07129)">
	<stop
   offset="0"
   style="stop-color:#00FFA3"
   id="stop5" />
	<stop
   offset="1"
   style="stop-color:#DC1FFF"
   id="stop6" />
</linearGradient>

<path
   d="m 110.4397,69.402663 c 0,1.24769 -0.41302,2.327029 -1.23929,3.23855 -0.82651,0.911649 -1.80487,1.367583 -2.93561,1.367583 H 91.651925 c 0,8.203503 -1.456564,15.158709 -4.370997,20.866821 l 13.569112,15.039463 c 0.82644,0.91029 1.23995,1.99013 1.23995,3.23793 0,1.2471 -0.41302,2.32641 -1.23995,3.23792 -0.78307,0.91029 -1.760917,1.36633 -2.935602,1.36633 -1.174171,0 -2.152827,-0.4563 -2.935601,-1.36633 L 82.061596,102.21551 c -0.217518,0.23938 -0.543522,0.55133 -0.978061,0.93492 -0.435867,0.38376 -1.348512,1.06796 -2.740609,2.05075 -1.391364,0.98364 -2.805135,1.8591 -4.240089,2.62686 -1.435459,0.7675 -3.21924,1.46329 -5.350236,2.08704 -2.131061,0.62236 -4.205941,0.72504 -6.327714,0.93507 -1.488899,0.1474 -2.986611,0.23313 -4.482773,0.2271 -1.291459,-0.005 -2.583015,-0.0953 -3.867743,-0.2271 -2.218951,-0.22763 -4.425278,-0.32433 -6.620793,-0.97221 -2.197148,-0.64708 -4.088755,-1.4389 -5.676361,-2.37444 -1.587822,-0.93553 -3.022694,-1.87029 -4.305351,-2.80638 -1.283238,-0.93568 -2.228641,-1.71463 -2.838257,-2.33775 l -0.978057,-1.00812 -11.938586,14.89522 c -0.869803,1.00681 -1.913355,1.51079 -3.131629,1.51079 -1.04378,0 -1.978408,-0.38454 -2.804476,-1.15144 -0.826651,-0.86356 -1.272545,-1.93091 -1.338407,-3.20194 -0.06638,-1.27111 0.272104,-2.3861 1.012216,-3.34581 L 28.632166,93.724811 C 26.109932,88.255295 24.848304,81.683295 24.848304,74.007887 H 10.23549 C 9.1040935,74.007887 8.1260212,73.551873 7.2999571,72.641 6.4733022,71.728891 6.059778,70.650139 6.059778,69.402442 c 0,-1.247158 0.413802,-2.327051 1.2401791,-3.237756 0.8260641,-0.911061 1.8041364,-1.366445 2.9355329,-1.366445 H 24.848225 V 43.644087 L 13.562187,31.195906 c -0.826219,-0.91166 -1.239515,-1.990861 -1.239515,-3.237981 0,-1.247035 0.413714,-2.327063 1.239515,-3.237892 0.825914,-0.911519 1.80479,-1.368158 2.935675,-1.368158 1.131312,0 2.109085,0.45728 2.935815,1.368158 L 30.719723,37.168229 H 85.780715 L 97.066911,24.720033 c 0.825779,-0.911519 1.804128,-1.368158 2.935519,-1.368158 1.13073,0 2.10961,0.45728 2.93554,1.368158 0.82651,0.910829 1.24002,1.990857 1.24002,3.237892 0,1.24712 -0.41367,2.326448 -1.24002,3.237981 L 91.651925,43.644087 v 21.154495 h 14.612815 c 1.13117,0 2.10968,0.455361 2.93559,1.36713 0.82638,0.910712 1.2399,1.990617 1.2399,3.237067 v 0 l -7.5e-4,-1.16e-4 z M 79.125411,27.957322 H 37.373709 c 0,-6.379306 2.0332,-11.812318 6.0999,-16.297871 4.065595,-4.4855795 8.992146,-6.7275022 14.776097,-6.7275022 5.784034,0 10.710578,2.2419227 14.776244,6.7275022 4.066927,4.48545 6.099465,9.918565 6.099461,16.297871 z"
   id="path1"
   style="overflow:hidden;fill:url(#linearGradient8);stroke:none;stroke-width:3.70443;stroke-dasharray:none;stroke-opacity:1"
   sodipodi:nodetypes="csscccscsccccccaaaccccccscccccscscscccscsccccscscccscsccccccscc"
   inkscape:export-filename="debugger-icon.png"
   inkscape:export-xdpi="96"
   inkscape:export-ydpi="96" /></svg>
